# File created by Blade
# Date/Time:  Tue Sep 30 19:29:15 2014
#---------------------------------------------------------
:version 1.10
:name HOM
:units
  mass 1.0
  length 1.000000
  angle deg
:documentation
     Acclaim Skeleton File
:root
   axis xyz
   order TX TY TZ RX RY RZ
   position 0.000000 0.000000 0.000000
   orientation 0 0 0
:bonedata
   begin
      id 1
      name RightUpLeg_dum
      direction -1.000000 0.000000 0.000000
      length 3.766986
      axis 0.0 0.0 0.0 xyz
   end
   begin
      id 2
      name LeftUpLeg_dum
      direction 1.000000 0.000000 0.000000
      length 3.766986
      axis 0.0 0.0 0.0 xyz
   end
   begin
      id 3
      name Spine_dum
      direction 0.000000 1.000000 0.000000
      length 7.779697
      axis 0.0 0.0 0.0 xyz
   end
   begin
      id 4
      name RightUpLeg
      direction 0.000000 -1.000000 0.000000
      length 18.017682
      axis 0.0 0.0 0.0 xyz
      dof rx ry rz
   end
   begin
      id 5
      name RightLeg
      direction 0.000000 -1.000000 0.000000
      length 16.881075
      axis 0.0 0.0 0.0 xyz
      dof rx ry rz
   end
   begin
      id 6
      name RightFoot
      direction 0.000000 -0.258819 0.965926
      length 5.770812
      axis 15.0 0.0 0.0 xyz
      dof rx ry rz
   end
   begin
      id 7
      name RightToeBase
      direction 0.000000 0.000000 1.000000
      length 2.952750
      axis 0.0 0.0 0.0 xyz
      dof rx ry rz
   end
   begin
      id 8
      name LeftUpLeg
      direction 0.000000 -1.000000 0.000000
      length 18.017682
      axis 0.0 0.0 0.0 xyz
      dof rx ry rz
   end
   begin
      id 9
      name LeftLeg
      direction 0.000000 -1.000000 0.000000
      length 16.881075
      axis 0.0 0.0 0.0 xyz
      dof rx ry rz
   end
   begin
      id 10
      name LeftFoot
      direction 0.000000 -0.258819 0.965926
      length 5.770812
      axis 15.0 0.0 0.0 xyz
      dof rx ry rz
   end
   begin
      id 11
      name LeftToeBase
      direction 0.000000 0.000000 1.000000
      length 2.952750
      axis 0.0 0.0 0.0 xyz
      dof rx ry rz
   end
   begin
      id 12
      name Spine
      direction 0.000000 1.000000 0.000000
      length 0.000000
      axis 0.0 0.0 0.0 xyz
      dof rx ry rz
   end
   begin
      id 13
      name Spine_dum1
      direction 0.000000 1.000000 0.000000
      length 10.941760
      axis 0.0 0.0 0.0 xyz
   end
   begin
      id 14
      name Spine_dum2
      direction 0.000000 1.000000 0.000000
      length 10.941760
      axis 0.0 0.0 0.0 xyz
   end
   begin
      id 15
      name Spine_dum3
      direction 0.000000 1.000000 0.000000
      length 16.646042
      axis 0.0 0.0 0.0 xyz
   end
   begin
      id 16
      name RightShoulder
      direction -1.000000 0.000000 0.000000
      length 7.708937
      axis 0.0 0.0 90.0 xyz
      dof rx ry rz
   end
   begin
      id 17
      name RightArm
      direction -1.000000 0.000000 0.000000
      length 11.521345
      axis 0.0 0.0 90.0 xyz
      dof rx ry rz
   end
   begin
      id 18
      name RightForeArm
      direction -1.000000 0.000000 0.000000
      length 10.175898
      axis 0.0 0.0 90.0 xyz
      dof ry rz rx
   end
   begin
      id 19
      name RightHand
      direction -1.000000 0.000000 0.000000
      length 0.000000
      axis 0.0 0.0 90.0 xyz
      dof rx ry rz
   end
   begin
      id 20
      name RightHand_dum1
      direction -1.000000 0.000000 0.000000
      length 3.937000
      axis 0.0 0.0 90.0 xyz
   end
   begin
      id 21
      name RightHand_dum2
      direction 0.000000 0.000000 0.000000
      length 0.000000
      axis 0.0 0.0 90.0 xyz
   end
   begin
      id 22
      name RightHandThumb1
      direction 0.000000 0.000000 1.000000
      length 3.937000
      axis 0.0 0.0 90.0 xyz
      dof rx rz ry
   end
   begin
      id 23
      name LeftShoulder
      direction 1.000000 0.000000 0.000000
      length 7.708937
      axis 0.0 0.0 -90.0 xyz
      dof rx ry rz
   end
   begin
      id 24
      name LeftArm
      direction 1.000000 0.000000 0.000000
      length 11.521345
      axis 0.0 0.0 -90.0 xyz
      dof rx ry rz
   end
   begin
      id 25
      name LeftForeArm
      direction 1.000000 0.000000 0.000000
      length 10.175898
      axis 0.0 0.0 -90.0 xyz
      dof ry rz rx
   end
   begin
      id 26
      name LeftHand
      direction 1.000000 0.000000 0.000000
      length 0.000000
      axis 0.0 0.0 -90.0 xyz
      dof rx ry rz
   end
   begin
      id 27
      name LeftHand_dum1
      direction 1.000000 0.000000 0.000000
      length 3.937000
      axis 0.0 0.0 -90.0 xyz
   end
   begin
      id 28
      name LeftHand_dum2
      direction 0.000000 0.000000 0.000000
      length 0.000000
      axis 0.0 0.0 -90.0 xyz
   end
   begin
      id 29
      name LeftHandThumb1
      direction 0.000000 0.000000 1.000000
      length 3.937000
      axis 0.0 0.0 -90.0 xyz
      dof rx rz ry
   end
   begin
      id 30
      name Head
      direction 0.000000 1.000000 0.000000
      length 4.527550
      axis 0.0 0.0 0.0 xyz
      dof rx ry rz
   end
:hierarchy
   begin
      root RightUpLeg_dum LeftUpLeg_dum Spine_dum
      RightUpLeg_dum RightUpLeg
      LeftUpLeg_dum LeftUpLeg
      Spine_dum Spine
      RightUpLeg RightLeg
      RightLeg RightFoot
      RightFoot RightToeBase
      LeftUpLeg LeftLeg
      LeftLeg LeftFoot
      LeftFoot LeftToeBase
      Spine Spine_dum1 Spine_dum2 Spine_dum3
      Spine_dum1 RightShoulder
      Spine_dum2 LeftShoulder
      Spine_dum3 Head
      RightShoulder RightArm
      RightArm RightForeArm
      RightForeArm RightHand
      RightHand RightHand_dum1 RightHand_dum2
      RightHand_dum2 RightHandThumb1
      LeftShoulder LeftArm
      LeftArm LeftForeArm
      LeftForeArm LeftHand
      LeftHand LeftHand_dum1 LeftHand_dum2
      LeftHand_dum2 LeftHandThumb1
   end

# File created by Blade
# Date/Time:  Mon Sep 22 16:45:27 2014
# Frame Rate: 120.000 fps
#------------------------------------------------------
:FULLY-SPECIFIED
:DEGREES
135
root 4.949593 37.294028 -0.479896 -20.032734 -3.562185 11.053457
RightUpLeg 12.752075 -3.391630 -6.928955
RightLeg 19.875555 -0.000000 -0.000000
RightFoot -21.814259 -14.720705 11.410417
RightToeBase 10.959902 -0.000000 -0.000000
LeftUpLeg -54.659793 2.526605 -8.642823
LeftLeg 103.285743 -0.000000 -0.000000
LeftFoot 0.576112 12.782947 -31.065802
LeftToeBase 5.490491 -0.000000 -0.000000
Spine 29.206077 2.714052 -4.065618
RightShoulder 6.361393 -8.038953 -23.815067
RightArm 45.671994 7.189267 58.641982
RightForeArm -20.380857 -0.000000 85.457086
RightHand 6.345267 -0.000000 -30.821718
RightHandThumb1 -24.326973 -0.000000 -32.862282
LeftShoulder -16.739700 33.139364 -0.269256
LeftArm 49.627267 7.241438 -69.561178
LeftForeArm 20.460272 -0.000000 63.192341
LeftHand -22.039013 -0.000000 2.460286
LeftHandThumb1 -26.253704 0.000000 33.147579
Head -7.785424 9.610722 -7.415049
136
root 4.924716 37.296322 -0.464982 -20.355295 -3.627831 11.168743
RightUpLeg 13.034706 -3.371396 -7.044022
RightLeg 19.960849 -0.000000 -0.000000
RightFoot -21.864218 -14.708331 11.322613
RightToeBase 11.092797 -0.000000 -0.000000
LeftUpLeg -56.092675 2.827667 -8.786803
LeftLeg 104.692448 -0.000000 -0.000000
LeftFoot 0.807612 12.383857 -30.860949
LeftToeBase 5.156592 -0.000000 -0.000000
Spine 29.543676 2.970221 -4.103486
RightShoulder 6.347877 -8.003392 -23.746678
RightArm 45.583111 7.267108 58.598834
RightForeArm -20.328313 0.000000 85.384499
RightHand 6.208798 -0.000000 -30.752050
RightHandThumb1 -24.326973 -0.000000 -32.862282
LeftShoulder -16.907155 33.169534 -0.403158
LeftArm 49.194943 6.995517 -69.725091
LeftForeArm 20.701447 -0.000000 62.660449
LeftHand -22.017513 -0.000000 2.240790
LeftHandThumb1 -26.253704 0.000000 33.147579
Head -7.699830 9.296164 -7.479811
137
root 4.906324 37.296591 -0.451841 -20.653506 -3.671581 11.276748
RightUpLeg 13.266415 -3.488605 -7.224835
RightLeg 20.101167 -0.000000 -0.000000
RightFoot -21.886692 -14.498179 11.293185
RightToeBase 11.021598 -0.000000 -0.000000
LeftUpLeg -57.545254 3.019824 -8.914034
LeftLeg 106.047252 -0.000000 -0.000000
LeftFoot 1.127976 11.992951 -30.827599
LeftToeBase 4.640111 -0.000000 -0.000000
Spine 29.857818 3.134314 -4.127730
RightShoulder 6.357926 -7.951780 -23.748884
RightArm 45.531843 7.306737 58.538371
RightForeArm -20.374465 0.000000 85.273490
RightHand 6.399591 -0.000000 -30.700670
RightHandThumb1 -24.326973 -0.000000 -32.862282
LeftShoulder -17.016046 33.148549 -0.506496
LeftArm 48.611538 6.745300 -69.952684
LeftForeArm 21.110077 -0.000000 62.186298
LeftHand -21.989407 -0.000000 2.375256
LeftHandThumb1 -26.253704 0.000000 33.147579
Head -7.593257 9.161065 -7.496026
138
root 4.886491 37.297680 -0.435205 -20.989725 -3.747530 11.386793
RightUpLeg 13.532583 -3.573714 -7.405679
RightLeg 20.236501 -0.000000 -0.000000
RightFoot -21.882528 -14.249047 11.325054
RightToeBase 10.965620 -0.000000 -0.000000
LeftUpLeg -58.948473 3.222493 -9.012329
LeftLeg 107.362666 -0.000000 -0.000000
LeftFoot 1.418174 11.639169 -30.640840
LeftToeBase 4.440270 -0.000000 -0.000000
Spine 30.213349 3.324622 -4.111930
RightShoulder 6.368213 -7.855538 -23.802004
RightArm 45.450728 7.305270 58.520186
RightForeArm -20.452075 -0.000000 85.152923
RightHand 6.374461 -0.000000 -30.759295
RightHandThumb1 -24.326973 -0.000000 -32.862282
LeftShoulder -17.280786 33.331946 -0.800965
LeftArm 48.370655 6.472369 -69.992773
LeftForeArm 21.159564 -0.000000 61.661787
LeftHand -22.079591 -0.000000 1.969372
LeftHandThumb1 -26.253704 0.000000 33.147579
Head -7.478454 9.485644 -7.539811
139
root 4.860962 37.297718 -0.416755 -21.311487 -3.838499 11.470656
RightUpLeg 13.792220 -3.665319 -7.552978
RightLeg 20.368621 -0.000000 -0.000000
RightFoot -21.871368 -14.007782 11.379568
RightToeBase 10.866464 -0.000000 -0.000000
LeftUpLeg -60.375659 3.436590 -9.061285
LeftLeg 108.680709 -0.000000 -0.000000
LeftFoot 1.658211 11.219980 -30.579270
LeftToeBase 4.605034 -0.000000 -0.000000
Spine 30.529558 3.544295 -4.099552
RightShoulder 6.396985 -7.760815 -23.781557
RightArm 45.314415 7.317334 58.439144
RightForeArm -20.379840 0.000000 85.036929
RightHand 6.408487 0.000000 -30.808146
RightHandThumb1 -24.326973 -0.000000 -32.862282
LeftShoulder -17.365393 33.332717 -0.876311
LeftArm 47.831315 6.232159 -70.203797
LeftForeArm 21.234914 -0.000000 61.199308
LeftHand -22.196974 0.000000 2.003912
LeftHandThumb1 -26.253704 0.000000 33.147579
Head -7.346985 9.460586 -7.553624
140
root 4.845541 37.306028 -0.385483 -21.734309 -3.913963 11.667383
RightUpLeg 14.176796 -3.800028 -7.885594
RightLeg 20.474182 -0.000000 -0.000000
RightFoot -21.865893 -13.624751 11.421785
RightToeBase 10.883806 -0.000000 -0.000000
LeftUpLeg -61.678466 3.695207 -9.217533
LeftLeg 109.917489 -0.000000 -0.000000
LeftFoot 1.958591 10.939543 -30.630276
LeftToeBase 4.459901 -0.000000 -0.000000
Spine 30.934328 3.797738 -4.200554
RightShoulder 6.429390 -7.734241 -23.752429
RightArm 45.255363 7.384476 58.446460
RightForeArm -20.409008 -0.000000 84.941024
RightHand 6.468662 -0.000000 -30.684814
RightHandThumb1 -24.326973 -0.000000 -32.862282
LeftShoulder -17.533729 33.536958 -1.053364
LeftArm 47.534299 5.938220 -70.329523
LeftForeArm 21.106427 -0.000000 60.717354
LeftHand -22.061754 -0.000000 1.692771
LeftHandThumb1 -26.253704 0.000000 33.147579
Head -7.217432 9.393567 -7.549050
141
root 4.824981 37.313070 -0.354793 -22.136780 -3.998024 11.840237
RightUpLeg 14.537461 -3.914159 -8.173821
RightLeg 20.591889 -0.000000 -0.000000
RightFoot -21.917687 -13.242037 11.526258
RightToeBase 10.966527 -0.000000 -0.000000
LeftUpLeg -62.985078 3.948858 -9.340528
LeftLeg 111.126097 -0.000000 -0.000000
LeftFoot 2.199619 10.595005 -30.554707
LeftToeBase 4.809001 -0.000000 -0.000000
Spine 31.306370 4.065926 -4.305133
RightShoulder 6.479365 -7.700539 -23.660608
RightArm 45.166106 7.459528 58.403175
RightForeArm -20.496372 -0.000000 84.853763
RightHand 6.444801 0.000000 -30.591681
RightHandThumb1 -24.326973 -0.000000 -32.862282
LeftShoulder -17.648440 33.553672 -1.077287
LeftArm 47.036653 5.765716 -70.531623
LeftForeArm 20.998279 -0.000000 60.247816
LeftHand -22.025351 -0.000000 1.505219
LeftHandThumb1 -26.253704 0.000000 33.147579
Head -7.086393 9.081610 -7.521113
